<svg width="52" height="52" viewBox="0 0 52 52" fill="none" xmlns="http://www.w3.org/2000/svg">
<circle cx="26" cy="26" r="25" stroke="#EFB443" stroke-width="2"/>
<path d="M31.3511 14.9038H19.8612C16.6883 14.9038 14.1162 17.4759 14.1162 20.6488V32.1387C14.1162 35.3115 16.6883 37.8836 19.8612 37.8836H31.3511C34.5239 37.8836 37.096 35.3115 37.096 32.1387V20.6488C37.096 17.4759 34.5239 14.9038 31.3511 14.9038Z" stroke="#EFB443" stroke-width="2" stroke-linecap="round" stroke-linejoin="round"/>
<path d="M30.202 25.6699C30.3438 26.6261 30.1805 27.6027 29.7353 28.4608C29.29 29.3188 28.5856 30.0147 27.7221 30.4493C26.8586 30.8839 25.88 31.0352 24.9256 30.8816C23.9712 30.728 23.0895 30.2774 22.4059 29.5938C21.7224 28.9103 21.2718 28.0286 21.1182 27.0742C20.9646 26.1198 21.1159 25.1412 21.5505 24.2777C21.9851 23.4142 22.681 22.7098 23.539 22.2645C24.3971 21.8193 25.3737 21.656 26.3299 21.7978C27.3053 21.9424 28.2084 22.3969 28.9056 23.0942C29.6029 23.7914 30.0574 24.6945 30.202 25.6699Z" stroke="#EFB443" stroke-width="2" stroke-linecap="round" stroke-linejoin="round"/>
<path d="M31.9255 20.0742H31.9358" stroke="#EFB443" stroke-width="2" stroke-linecap="round" stroke-linejoin="round"/>
</svg>
