<svg width="53" height="52" viewBox="0 0 53 52" fill="none" xmlns="http://www.w3.org/2000/svg">
<circle cx="26.5151" cy="26" r="25" stroke="#EFB443" stroke-width="2"/>
<path d="M30.7172 20.2222C32.5456 20.2222 34.2991 20.9485 35.5919 22.2414C36.8848 23.5342 37.6111 25.2877 37.6111 27.1161V35.159H33.0152V27.1161C33.0152 26.5066 32.7731 25.9221 32.3421 25.4912C31.9111 25.0602 31.3266 24.8181 30.7172 24.8181C30.1077 24.8181 29.5232 25.0602 29.0923 25.4912C28.6613 25.9221 28.4192 26.5066 28.4192 27.1161V35.159H23.8232V27.1161C23.8232 25.2877 24.5496 23.5342 25.8424 22.2414C27.1353 20.9485 28.8888 20.2222 30.7172 20.2222Z" fill="#EFB443"/>
<path d="M19.2273 21.3711H14.6313V35.159H19.2273V21.3711Z" fill="#EFB443"/>
<path d="M16.9293 17.9241C18.1985 17.9241 19.2273 16.8952 19.2273 15.6261C19.2273 14.357 18.1985 13.3281 16.9293 13.3281C15.6602 13.3281 14.6313 14.357 14.6313 15.6261C14.6313 16.8952 15.6602 17.9241 16.9293 17.9241Z" fill="#EFB443"/>
</svg>
