<svg width="113" height="56" viewBox="0 0 113 56" fill="none" xmlns="http://www.w3.org/2000/svg">
<path d="M3.2749 1.10145L3.2749 34.1449M6.29882 1.37681H11.2471M3 16.7971H11.2471M24.6979 2.38065L17.5505 34.8734M16.7451 34.4203H33.789M32.995 34.3682L24.1981 2.97688M41.7612 0V15.971M41.7612 19.8261V35.7971M51.6576 25.3333V35.7971M48.267 1.27329L65.8607 35.4182M64.8529 1.65217V12.6667M74.4745 3.02899H82.7216M88.9598 4.2193L73.5653 35.6106M82.1718 34.971H89.869M95.587 1.90635L101.085 16.2252M111 2.44584L106.602 16.7647M104.439 21.4783V38" stroke="#3973CA" stroke-width="2.5"/>
<path d="M4.65065 51.0735V52.0515H2.99246V55.9265H1.66591V52.0515H0V51.0735H4.65065Z" fill="#3973CA"/>
<path d="M12.0197 55.9265V51.0735H15.9839V52.0515H13.3462V53.0368H15.444V53.9559H13.3462V54.9485H16.0842V55.9265H12.0197Z" fill="#3973CA"/>
<path d="M27.9626 54.5368C27.8649 54.875 27.7081 55.1544 27.4921 55.375C27.2762 55.5907 27.0191 55.75 26.7209 55.8529C26.4226 55.951 26.0936 56 25.7337 56C25.2195 56 24.7747 55.902 24.3994 55.7059C24.024 55.5049 23.7361 55.2181 23.5356 54.8456C23.3351 54.473 23.2348 54.0245 23.2348 53.5C23.2348 52.9755 23.3351 52.527 23.5356 52.1544C23.7361 51.7819 24.024 51.4975 24.3994 51.3015C24.7747 51.1005 25.2169 51 25.7259 51C26.0807 51 26.4072 51.049 26.7054 51.1471C27.0037 51.2402 27.2556 51.3848 27.4613 51.5809C27.6669 51.777 27.8135 52.0294 27.9009 52.3382L26.7363 52.7868C26.6643 52.4828 26.546 52.2745 26.3815 52.1618C26.2221 52.049 26.019 51.9926 25.7722 51.9926C25.5306 51.9926 25.3197 52.049 25.1398 52.1618C24.965 52.2745 24.8287 52.4436 24.731 52.6691C24.6385 52.8897 24.5922 53.1667 24.5922 53.5C24.5922 53.8284 24.6359 54.1054 24.7233 54.3309C24.8107 54.5564 24.9418 54.7255 25.1167 54.8382C25.2966 54.951 25.5177 55.0074 25.7799 55.0074C26.0267 55.0074 26.235 54.9436 26.4046 54.8162C26.5795 54.6838 26.6977 54.4828 26.7594 54.2132L27.9626 54.5368Z" fill="#3973CA"/>
<path d="M39.9078 51.0735V55.9265H38.5812V51.0735H39.9078ZM36.6377 51.0735V55.9265H35.3111V51.0735H36.6377ZM39.2908 52.9926V53.9706H35.959V52.9926H39.2908Z" fill="#3973CA"/>
<path d="M52.2349 51.0735V55.9265H50.7619L49.1808 53.3015L48.7952 52.5809H48.7875L48.8183 53.4779V55.9265H47.646V51.0735H49.1191L50.7002 53.6985L51.0858 54.4191H51.0935L51.0626 53.5221V51.0735H52.2349Z" fill="#3973CA"/>
<path d="M62.2562 51C62.7704 51 63.2126 51.1005 63.5828 51.3015C63.9581 51.4975 64.2461 51.7819 64.4466 52.1544C64.6471 52.527 64.7474 52.9755 64.7474 53.5C64.7474 54.0245 64.6471 54.473 64.4466 54.8456C64.2461 55.2181 63.9581 55.5049 63.5828 55.7059C63.2126 55.902 62.7704 56 62.2562 56C61.7421 56 61.2973 55.902 60.922 55.7059C60.5466 55.5049 60.2587 55.2181 60.0582 54.8456C59.8577 54.473 59.7574 54.0245 59.7574 53.5C59.7574 52.9755 59.8577 52.527 60.0582 52.1544C60.2587 51.7819 60.5466 51.4975 60.922 51.3015C61.2973 51.1005 61.7421 51 62.2562 51ZM62.2562 51.9926C62.0094 51.9926 61.8012 52.049 61.6315 52.1618C61.4619 52.2745 61.3333 52.4436 61.2459 52.6691C61.1585 52.8897 61.1148 53.1667 61.1148 53.5C61.1148 53.8284 61.1585 54.1054 61.2459 54.3309C61.3333 54.5564 61.4619 54.7255 61.6315 54.8382C61.8012 54.951 62.0094 55.0074 62.2562 55.0074C62.503 55.0074 62.7087 54.951 62.8732 54.8382C63.0429 54.7255 63.1715 54.5564 63.2589 54.3309C63.3463 54.1054 63.39 53.8284 63.39 53.5C63.39 53.1667 63.3463 52.8897 63.2589 52.6691C63.1715 52.4436 63.0429 52.2745 62.8732 52.1618C62.7087 52.049 62.503 51.9926 62.2562 51.9926Z" fill="#3973CA"/>
<path d="M73.5971 54.9485H76.15V55.9265H72.2706V51.0735H73.5971V54.9485Z" fill="#3973CA"/>
<path d="M85.6381 51C86.1522 51 86.5944 51.1005 86.9646 51.3015C87.34 51.4975 87.6279 51.7819 87.8284 52.1544C88.029 52.527 88.1292 52.9755 88.1292 53.5C88.1292 54.0245 88.029 54.473 87.8284 54.8456C87.6279 55.2181 87.34 55.5049 86.9646 55.7059C86.5944 55.902 86.1522 56 85.6381 56C85.1239 56 84.6791 55.902 84.3038 55.7059C83.9285 55.5049 83.6405 55.2181 83.44 54.8456C83.2395 54.473 83.1392 54.0245 83.1392 53.5C83.1392 52.9755 83.2395 52.527 83.44 52.1544C83.6405 51.7819 83.9285 51.4975 84.3038 51.3015C84.6791 51.1005 85.1239 51 85.6381 51ZM85.6381 51.9926C85.3913 51.9926 85.183 52.049 85.0134 52.1618C84.8437 52.2745 84.7151 52.4436 84.6277 52.6691C84.5403 52.8897 84.4966 53.1667 84.4966 53.5C84.4966 53.8284 84.5403 54.1054 84.6277 54.3309C84.7151 54.5564 84.8437 54.7255 85.0134 54.8382C85.183 54.951 85.3913 55.0074 85.6381 55.0074C85.8849 55.0074 86.0905 54.951 86.2551 54.8382C86.4247 54.7255 86.5533 54.5564 86.6407 54.3309C86.7281 54.1054 86.7718 53.8284 86.7718 53.5C86.7718 53.1667 86.7281 52.8897 86.6407 52.6691C86.5533 52.4436 86.4247 52.2745 86.2551 52.1618C86.0905 52.049 85.8849 51.9926 85.6381 51.9926Z" fill="#3973CA"/>
<path d="M97.7579 56C97.3054 56 96.9018 55.9044 96.547 55.7132C96.1974 55.5221 95.9249 55.2402 95.7295 54.8676C95.5341 54.4951 95.4364 54.0417 95.4364 53.5074C95.4364 52.9828 95.5393 52.5343 95.7449 52.1618C95.9506 51.7892 96.2437 51.5025 96.6242 51.3015C97.0098 51.1005 97.4622 51 97.9816 51C98.5574 51 99.0228 51.1005 99.3775 51.3015C99.7323 51.4975 100.007 51.8113 100.203 52.2426L98.9765 52.7059C98.9096 52.4559 98.7914 52.2745 98.6217 52.1618C98.452 52.049 98.2412 51.9926 97.9893 51.9926C97.7373 51.9926 97.5214 52.0515 97.3414 52.1691C97.1615 52.2819 97.0252 52.451 96.9327 52.6765C96.8401 52.8971 96.7938 53.1716 96.7938 53.5C96.7938 53.8431 96.8401 54.1299 96.9327 54.3603C97.0303 54.5907 97.1717 54.7623 97.3568 54.875C97.5471 54.9828 97.781 55.0368 98.0587 55.0368C98.2078 55.0368 98.344 55.0196 98.4674 54.9853C98.5908 54.951 98.6988 54.902 98.7914 54.8382C98.8839 54.7696 98.9559 54.6863 99.0073 54.5882C99.0587 54.4853 99.0844 54.3652 99.0844 54.2279V54.1544H97.9199V53.3088H100.21V55.9265H99.3081L99.2079 54.7868L99.4238 54.9632C99.3158 55.2966 99.1204 55.5539 98.8376 55.7353C98.56 55.9118 98.2001 56 97.7579 56Z" fill="#3973CA"/>
<path d="M112 51.0735L110.203 54.1544V55.9265H108.876V54.1544L107.079 51.0735H108.452L109.17 52.4044L109.547 53.2132L109.933 52.4044L110.65 51.0735H112Z" fill="#3973CA"/>
</svg>
